<svg width="35" height="34" viewBox="0 0 35 34" fill="none" xmlns="http://www.w3.org/2000/svg">
<path d="M0.820312 3.62842C0.820312 1.62665 2.44306 0.00390625 4.44482 0.00390625H30.8358C32.8376 0.00390625 34.4603 1.62666 34.4603 3.62842V30.0194C34.4603 32.0212 32.8376 33.6439 30.8358 33.6439H4.44482C2.44306 33.6439 0.820312 32.0212 0.820312 30.0194V3.62842Z" fill="#FF88FB" fill-opacity="0.1"/>
<path d="M25.4727 14.987C25.4727 14.987 25.5532 14.7515 25.8026 14.631C26.0366 14.5178 26.5835 14.5032 26.819 14.8409C27.0669 15.1969 27.0591 15.7153 27.1397 16.6335C27.2032 17.3418 27.259 18.1322 27.1614 18.4936C27.0885 18.7656 26.8747 19.0322 26.379 19.0486C25.8848 19.065 25.6508 18.6926 25.6508 18.6926L25.4727 14.987Z" fill="#31322E"/>
<path d="M8.4585 16.4352C8.4585 16.4352 8.38723 15.9478 8.76371 15.5042C9.14018 15.0606 9.39271 15.0168 9.87608 14.9748C10.3594 14.9329 12.138 14.869 12.138 14.869C12.138 14.869 16.0344 9.79239 16.07 9.75041C16.1057 9.70842 24.0767 9.64453 24.3648 9.64453C24.653 9.64453 25.1364 9.92017 25.2092 10.4057C25.2804 10.8931 25.6739 15.7141 25.6739 15.7141L17.8471 17.9996L8.4585 16.4352Z" fill="#489DF6"/>
<path d="M16.8357 18.3915L11.562 17.0078L8.49287 19.945C8.49287 19.945 8.08077 19.8957 8.08077 20.3812C8.08077 20.8668 8.03894 21.7156 8.1226 21.7887C8.20626 21.8617 22.7275 21.9347 22.7275 21.9347C22.7275 21.9347 26.1669 21.911 26.2707 21.8379C26.3745 21.7649 26.3853 21.6791 26.4148 20.9161C26.4318 20.4798 26.5108 20.0782 26.0987 20.0289C26.06 20.0253 25.9779 20.0216 25.9438 20.0143C25.6185 19.9413 25.5487 19.7515 25.5487 19.7515L24.1683 17.1538L19.2045 17.6394L16.8357 18.3915Z" fill="#506D71"/>
<path d="M12.1331 19.0902C10.8906 19.0665 9.96875 20.1034 9.96875 21.5929C9.96875 22.8434 10.6907 23.9368 11.9921 24.0007C13.4143 24.0719 14.1951 22.7758 14.2153 21.6879C14.2354 20.5999 13.5754 19.1176 12.1331 19.0902Z" fill="#4C443F"/>
<path d="M12.0514 20.1974C11.3713 20.2357 10.9297 20.8107 10.9499 21.519C10.97 22.2273 11.4302 22.8881 12.1118 22.8644C12.7935 22.8406 13.2134 22.2747 13.2335 21.5902C13.2521 20.9294 12.8927 20.1499 12.0514 20.1974Z" fill="#C8C8C8"/>
<path d="M23.6004 19.4052C22.5515 18.6221 21.3059 18.9397 20.6459 20.2103C20.0913 21.2781 20.2183 22.6655 21.3059 23.5088C22.3671 24.3321 23.6918 23.7845 24.1906 22.8681C24.6895 21.9536 24.8181 20.3143 23.6004 19.4052Z" fill="#4C443F"/>
<path d="M23.0185 20.2626C22.4205 19.8774 21.7652 20.1841 21.4925 20.7135C21.1811 21.3195 21.2958 22.1775 21.8876 22.5754C22.4794 22.9734 23.0759 22.7397 23.4089 22.1775C23.6677 21.7412 23.7575 20.739 23.0185 20.2626Z" fill="#C8C8C8"/>
<path d="M8.39987 19.9483C8.52381 19.9629 9.54478 19.9392 9.54478 19.9392C9.54478 19.9392 9.83294 18.9936 10.6448 18.477C11.6471 17.8399 12.9284 17.9111 13.7696 18.6194C14.6837 19.3897 14.7906 20.2093 14.7906 20.2093L19.7591 20.1765C19.7591 20.1765 20.0395 18.926 21.0016 18.2178C21.9017 17.5551 23.279 17.6482 24.0676 18.3364C25.07 19.209 25.1691 20.0122 25.1691 20.0122C25.1691 20.0122 25.8632 20.0158 25.9469 20.0158C25.9825 20.0158 25.8709 17.9586 25.8709 17.9586L25.6711 15.7151C25.6711 15.7151 23.468 15.6914 22.1651 16.1167C20.8622 16.542 19.6801 16.5895 17.9372 16.5657C16.1942 16.542 14.9719 16.354 14.1105 16.1641C13.2491 15.9761 12.0468 15.8337 10.9856 16.1879C9.92435 16.542 9.62379 17.0604 9.62379 17.0604C9.62379 17.0604 8.42156 17.7924 8.38128 17.933C8.341 18.0736 8.39987 19.9483 8.39987 19.9483Z" fill="#1D86FB"/>
<path d="M24.9294 16.0272C24.8798 16.1477 24.9124 16.6953 24.9185 17.2448C24.9232 17.6975 24.9062 18.0699 24.9697 18.1155C25.0301 18.1611 25.8961 18.1046 25.8961 18.1046L25.7459 16.1312L25.7133 15.9907C25.7118 15.9907 24.9526 15.9743 24.9294 16.0272Z" fill="#FF2A23"/>
<path d="M8.81134 16.1958C8.81134 16.1958 10.1607 16.1373 10.2429 16.2432C10.325 16.3491 10.2429 16.6083 10.0786 16.9752C9.91441 17.3421 9.6216 17.8806 9.56428 17.9391C9.50696 17.9975 8.785 17.9774 8.785 17.9774L8.49219 16.6667L8.81134 16.1958Z" fill="white"/>
<path d="M8.40293 16.2044C8.40293 16.2044 8.32082 16.5787 8.31308 17.0715C8.30533 17.5626 8.37815 17.9769 8.37815 17.9769H8.78715C8.78715 17.9769 8.73913 17.5626 8.74687 17.0989C8.75462 16.617 8.84448 16.1953 8.84448 16.1953L8.40293 16.2044Z" fill="#D7CCC5"/>
<path d="M16.4719 10.7306C16.2086 10.8985 15.4525 12.0595 15.0652 12.6126C14.6779 13.1657 13.6569 14.5896 13.5857 14.7557C13.5159 14.9218 13.5392 15.1299 13.7623 15.1427C13.9854 15.1573 19.8307 15.2248 19.9129 15.2121C19.995 15.1975 20.0306 15.0459 20.0182 14.9072C20.0058 14.7685 20.0771 11.1322 20.0538 10.9661C20.0306 10.7999 19.8664 10.6484 19.5844 10.6484C19.3365 10.6503 16.6129 10.6411 16.4719 10.7306Z" fill="#506D73"/>
<path d="M16.6901 11.127C16.5724 11.2092 14.3739 14.3471 14.3182 14.4329C14.2361 14.5571 14.2345 14.6593 14.3739 14.6593C14.5134 14.6593 19.3502 14.6739 19.4679 14.6739C19.5857 14.6739 19.6554 14.5771 19.6445 14.4256C19.6322 14.2741 19.7034 11.3278 19.6802 11.2457C19.6569 11.1636 19.5981 11.0668 19.4695 11.0668C19.3409 11.0668 16.7908 11.0577 16.6901 11.127Z" fill="#AFE3FB"/>
<path d="M21.2273 10.6499C21.1328 10.6499 20.9453 10.7466 20.9453 10.9547C20.9453 11.1628 20.9686 14.9378 20.9686 15.062C20.9686 15.1861 21.0383 15.2007 21.2149 15.2007C21.3915 15.2007 24.4544 15.1587 24.583 15.1587C24.7116 15.1587 24.7116 14.9652 24.7007 14.8265C24.6883 14.6877 24.3134 11.203 24.2902 10.9821C24.2669 10.7612 24.126 10.6225 23.9385 10.6079C23.751 10.5933 21.2273 10.6499 21.2273 10.6499Z" fill="#506D73"/>
<path d="M14.5977 15.1247C14.5977 15.1247 14.8331 15.5536 15.0051 15.7526C15.1662 15.9388 15.3971 16.0903 15.6186 16.0684C15.8402 16.0483 15.9796 15.8037 16.0168 15.0297C16.0586 14.1736 15.8959 13.9746 15.6186 13.9655C15.3351 13.9546 15.3072 14.0805 15.1306 14.2795C15.0345 14.3872 14.5977 15.1247 14.5977 15.1247Z" fill="#0250AC"/>
<path d="M15.2774 15.1944C15.4587 15.1689 15.5919 15.0429 15.7081 14.718C15.8243 14.393 15.7205 14.1776 15.6043 14.0973C15.4742 14.0061 15.3456 14.0371 15.3146 14.0553C15.2898 14.0699 15.1876 14.1849 15.0853 14.331C14.9459 14.5281 14.8281 14.7399 14.8281 14.7399C14.8281 14.7399 15.0218 15.2309 15.2774 15.1944Z" fill="#489DF6"/>
<path d="M21.3899 11.1187C21.345 11.1717 21.3899 14.6583 21.4256 14.6875C21.4612 14.7149 24.2065 14.7295 24.2421 14.6875C24.2778 14.6455 23.8905 11.1059 23.8424 11.064C23.796 11.022 21.4364 11.064 21.3899 11.1187Z" fill="#AFE3FB"/>
</svg>
