<svg width="198" height="67" viewBox="0 0 198 67" fill="none" xmlns="http://www.w3.org/2000/svg">
<path d="M0 8.14453C0 3.72625 3.58172 0.144531 8 0.144531H190C194.418 0.144531 198 3.72625 198 8.14453V58.1445C198 62.5628 194.418 66.1445 190 66.1445H8C3.58172 66.1445 0 62.5628 0 58.1445V8.14453Z" fill="#181818"/>
<g clip-path="url(#clip0_1419_26895)">
<path d="M26.9444 32.3203L12.1328 47.8384C12.2991 48.4279 12.5981 48.9715 13.0067 49.4278C13.4153 49.884 13.9228 50.2408 14.4905 50.4708C15.0581 50.7008 15.6708 50.798 16.2818 50.7549C16.8928 50.7119 17.4858 50.5297 18.0156 50.2223L34.6814 40.7306L26.9444 32.3203Z" fill="#EA4335"/>
<path d="M41.9207 29.6827L34.7138 25.5547L26.6016 32.6734L34.7468 40.7084L41.8988 36.6247C42.5324 36.2929 43.0631 35.7941 43.4334 35.1822C43.8036 34.5704 43.9994 33.8688 43.9994 33.1536C43.9994 32.4384 43.8036 31.7369 43.4334 31.125C43.0631 30.5132 42.5324 30.0143 41.8988 29.6826L41.9207 29.6827Z" fill="#FBBC04"/>
<path d="M12.1325 18.3945C12.0431 18.7255 11.9985 19.067 12 19.4099V46.8258C12.0009 47.1685 12.0454 47.5098 12.1325 47.8413L27.4519 32.7205L12.1325 18.3945Z" fill="#4285F4"/>
<path d="M27.0548 33.1163L34.7146 25.5559L18.0708 16.0199C17.4446 15.6532 16.7324 15.459 16.0067 15.457C14.2058 15.4535 12.6226 16.6488 12.1328 18.3819L27.0548 33.1163Z" fill="#34A853"/>
</g>
<path d="M64.1932 19.1445C64.0838 18.8098 63.9396 18.5098 63.7607 18.2447C63.585 17.9762 63.3745 17.7475 63.1293 17.5586C62.8873 17.3697 62.6122 17.2255 62.304 17.1261C61.9957 17.0266 61.6577 16.9769 61.2898 16.9769C60.6866 16.9769 60.138 17.1327 59.6442 17.4442C59.1503 17.7558 58.7576 18.2148 58.4659 18.8214C58.1742 19.4279 58.0284 20.172 58.0284 21.0536C58.0284 21.9353 58.1759 22.6793 58.4709 23.2859C58.7659 23.8924 59.1652 24.3514 59.669 24.663C60.1728 24.9746 60.7396 25.1303 61.3693 25.1303C61.9527 25.1303 62.4664 25.006 62.9105 24.7575C63.358 24.5056 63.706 24.1509 63.9545 23.6935C64.2064 23.2328 64.3324 22.6909 64.3324 22.0678L64.7102 22.1474H61.6477V21.0536H65.5256V22.1474C65.5256 22.9859 65.3466 23.7151 64.9886 24.3349C64.634 24.9547 64.1435 25.4353 63.517 25.7766C62.8939 26.1147 62.178 26.2837 61.3693 26.2837C60.4678 26.2837 59.6757 26.0716 58.9929 25.6474C58.3134 25.2231 57.7831 24.6199 57.402 23.8377C57.0241 23.0555 56.8352 22.1275 56.8352 21.0536C56.8352 20.2482 56.9429 19.524 57.1584 18.881C57.3771 18.2347 57.6854 17.6845 58.0831 17.2305C58.4808 16.7764 58.9515 16.4284 59.495 16.1864C60.0386 15.9445 60.6368 15.8235 61.2898 15.8235C61.8267 15.8235 62.3272 15.9047 62.7912 16.0671C63.2585 16.2262 63.6745 16.4532 64.0391 16.7482C64.407 17.0399 64.7135 17.3896 64.9588 17.7972C65.2041 18.2016 65.3731 18.6507 65.4659 19.1445H64.1932ZM70.6799 26.3036C69.9441 26.3036 69.3094 26.1412 68.7757 25.8164C68.2454 25.4883 67.8361 25.0309 67.5478 24.4442C67.2627 23.8543 67.1202 23.1682 67.1202 22.386C67.1202 21.6038 67.2627 20.9144 67.5478 20.3178C67.8361 19.7179 68.2372 19.2506 68.7509 18.9158C69.2679 18.5778 69.8712 18.4087 70.5605 18.4087C70.9583 18.4087 71.351 18.475 71.7388 18.6076C72.1266 18.7402 72.4796 18.9556 72.7978 19.2539C73.1159 19.5489 73.3695 19.94 73.5584 20.4272C73.7473 20.9144 73.8418 21.5143 73.8418 22.2269V22.7241H67.9554V21.7099H72.6486C72.6486 21.279 72.5624 20.8945 72.3901 20.5565C72.2211 20.2184 71.9791 19.9516 71.6642 19.756C71.3527 19.5605 70.9848 19.4627 70.5605 19.4627C70.0932 19.4627 69.6889 19.5787 69.3475 19.8107C69.0094 20.0394 68.7492 20.3377 68.5669 20.7056C68.3846 21.0735 68.2935 21.4679 68.2935 21.8888V22.565C68.2935 23.1417 68.3929 23.6306 68.5918 24.0316C68.794 24.4293 69.074 24.7326 69.432 24.9414C69.79 25.1469 70.2059 25.2496 70.6799 25.2496C70.9881 25.2496 71.2665 25.2066 71.5151 25.1204C71.767 25.0309 71.9841 24.8983 72.1664 24.7227C72.3487 24.5437 72.4895 24.3216 72.589 24.0565L73.7225 24.3746C73.6032 24.7591 73.4026 25.0972 73.1209 25.3888C72.8392 25.6772 72.4912 25.9026 72.0769 26.065C71.6626 26.2241 71.1969 26.3036 70.6799 26.3036ZM78.9476 18.5082V19.5025H74.9902V18.5082H78.9476ZM76.1436 16.6786H77.3169V23.957C77.3169 24.2885 77.365 24.5371 77.4611 24.7028C77.5605 24.8652 77.6865 24.9746 77.839 25.0309C77.9947 25.0839 78.1588 25.1104 78.3311 25.1104C78.4604 25.1104 78.5665 25.1038 78.6493 25.0906C78.7322 25.074 78.7985 25.0607 78.8482 25.0508L79.0868 26.1048C79.0073 26.1346 78.8962 26.1644 78.7537 26.1942C78.6112 26.2274 78.4306 26.244 78.2118 26.244C77.8804 26.244 77.5556 26.1727 77.2374 26.0302C76.9225 25.8877 76.6607 25.6706 76.4519 25.3789C76.2464 25.0872 76.1436 24.7193 76.1436 24.2752V16.6786ZM84.65 26.1445V18.5082H85.8233V26.1445H84.65ZM85.2466 17.2354C85.0179 17.2354 84.8207 17.1576 84.655 17.0018C84.4926 16.846 84.4114 16.6587 84.4114 16.44C84.4114 16.2212 84.4926 16.034 84.655 15.8782C84.8207 15.7224 85.0179 15.6445 85.2466 15.6445C85.4753 15.6445 85.6709 15.7224 85.8333 15.8782C85.999 16.034 86.0819 16.2212 86.0819 16.44C86.0819 16.6587 85.999 16.846 85.8333 17.0018C85.6709 17.1576 85.4753 17.2354 85.2466 17.2354ZM91.2933 18.5082V19.5025H87.3359V18.5082H91.2933ZM88.4893 16.6786H89.6626V23.957C89.6626 24.2885 89.7107 24.5371 89.8068 24.7028C89.9063 24.8652 90.0322 24.9746 90.1847 25.0309C90.3404 25.0839 90.5045 25.1104 90.6768 25.1104C90.8061 25.1104 90.9122 25.1038 90.995 25.0906C91.0779 25.074 91.1442 25.0607 91.1939 25.0508L91.4325 26.1048C91.353 26.1346 91.242 26.1644 91.0994 26.1942C90.9569 26.2274 90.7763 26.244 90.5575 26.244C90.2261 26.244 89.9013 26.1727 89.5831 26.0302C89.2682 25.8877 89.0064 25.6706 88.7976 25.3789C88.5921 25.0872 88.4893 24.7193 88.4893 24.2752V16.6786ZM105.746 21.0536C105.746 22.1275 105.552 23.0555 105.164 23.8377C104.776 24.6199 104.244 25.2231 103.568 25.6474C102.892 26.0716 102.12 26.2837 101.251 26.2837C100.383 26.2837 99.6108 26.0716 98.9347 25.6474C98.2585 25.2231 97.7266 24.6199 97.3388 23.8377C96.951 23.0555 96.7571 22.1275 96.7571 21.0536C96.7571 19.9798 96.951 19.0517 97.3388 18.2695C97.7266 17.4873 98.2585 16.8841 98.9347 16.4599C99.6108 16.0356 100.383 15.8235 101.251 15.8235C102.12 15.8235 102.892 16.0356 103.568 16.4599C104.244 16.8841 104.776 17.4873 105.164 18.2695C105.552 19.0517 105.746 19.9798 105.746 21.0536ZM104.553 21.0536C104.553 20.172 104.405 19.4279 104.11 18.8214C103.818 18.2148 103.422 17.7558 102.922 17.4442C102.425 17.1327 101.868 16.9769 101.251 16.9769C100.635 16.9769 100.076 17.1327 99.576 17.4442C99.0788 17.7558 98.6828 18.2148 98.3878 18.8214C98.0961 19.4279 97.9503 20.172 97.9503 21.0536C97.9503 21.9353 98.0961 22.6793 98.3878 23.2859C98.6828 23.8924 99.0788 24.3514 99.576 24.663C100.076 24.9746 100.635 25.1303 101.251 25.1303C101.868 25.1303 102.425 24.9746 102.922 24.663C103.422 24.3514 103.818 23.8924 104.11 23.2859C104.405 22.6793 104.553 21.9353 104.553 21.0536ZM108.833 21.5508V26.1445H107.66V18.5082H108.793V19.7013H108.893C109.072 19.3136 109.344 19.002 109.708 18.7667C110.073 18.5281 110.543 18.4087 111.12 18.4087C111.637 18.4087 112.089 18.5148 112.477 18.7269C112.865 18.9357 113.167 19.2539 113.382 19.6815C113.598 20.1057 113.705 20.6426 113.705 21.2923V26.1445H112.532V21.3718C112.532 20.7719 112.376 20.3046 112.065 19.9698C111.753 19.6317 111.326 19.4627 110.782 19.4627C110.407 19.4627 110.073 19.5439 109.778 19.7063C109.486 19.8687 109.256 20.1057 109.087 20.4173C108.918 20.7288 108.833 21.1067 108.833 21.5508Z" fill="white"/>
<path d="M64.9432 42.2241C64.8485 41.9173 64.7178 41.6426 64.5511 41.4002C64.3883 41.154 64.1913 40.9438 63.9602 40.7695C63.733 40.5953 63.4716 40.4646 63.1761 40.3775C62.8807 40.2866 62.5587 40.2411 62.2102 40.2411C61.5852 40.2411 61.0284 40.3983 60.5398 40.7127C60.0511 41.0271 59.6667 41.4892 59.3864 42.0991C59.1098 42.7051 58.9716 43.4438 58.9716 44.315C58.9716 45.1938 59.1098 45.9381 59.3864 46.5479C59.6629 47.1578 60.0473 47.6218 60.5398 47.94C61.0322 48.2544 61.6042 48.4116 62.2557 48.4116C62.8466 48.4116 63.358 48.2979 63.7898 48.0707C64.2254 47.8434 64.5606 47.5214 64.7955 47.1048C65.0303 46.6843 65.1477 46.1919 65.1477 45.6275L65.625 45.7013H62.4659V44.0536H67.1875V45.4513C67.1875 46.4476 66.9754 47.3093 66.5511 48.0366C66.1269 48.7638 65.5436 49.3245 64.8011 49.7184C64.0587 50.1085 63.2064 50.3036 62.2443 50.3036C61.1723 50.3036 60.2311 50.0631 59.4205 49.582C58.6136 49.0972 57.983 48.4097 57.5284 47.5195C57.0777 46.6256 56.8523 45.565 56.8523 44.3377C56.8523 43.3983 56.9848 42.5593 57.25 41.8207C57.5189 41.082 57.8939 40.4551 58.375 39.94C58.8561 39.421 59.4205 39.0271 60.0682 38.7582C60.7159 38.4854 61.4205 38.3491 62.1818 38.3491C62.8258 38.3491 63.4261 38.4438 63.983 38.6332C64.5398 38.8188 65.0341 39.0839 65.4659 39.4286C65.9015 39.7733 66.2595 40.1824 66.5398 40.6559C66.8201 41.1294 67.0038 41.6521 67.0909 42.2241H64.9432ZM72.9418 50.315C72.0895 50.315 71.3509 50.1275 70.7259 49.7525C70.1009 49.3775 69.616 48.8529 69.2713 48.1786C68.9304 47.5044 68.7599 46.7165 68.7599 45.815C68.7599 44.9135 68.9304 44.1237 69.2713 43.4457C69.616 42.7676 70.1009 42.2411 70.7259 41.8661C71.3509 41.4911 72.0895 41.3036 72.9418 41.3036C73.794 41.3036 74.5327 41.4911 75.1577 41.8661C75.7827 42.2411 76.2656 42.7676 76.6065 43.4457C76.9512 44.1237 77.1236 44.9135 77.1236 45.815C77.1236 46.7165 76.9512 47.5044 76.6065 48.1786C76.2656 48.8529 75.7827 49.3775 75.1577 49.7525C74.5327 50.1275 73.794 50.315 72.9418 50.315ZM72.9531 48.6673C73.4152 48.6673 73.8016 48.5404 74.1122 48.2866C74.4228 48.029 74.6539 47.6843 74.8054 47.2525C74.9607 46.8207 75.0384 46.3396 75.0384 45.8093C75.0384 45.2752 74.9607 44.7923 74.8054 44.3604C74.6539 43.9248 74.4228 43.5782 74.1122 43.3207C73.8016 43.0631 73.4152 42.9343 72.9531 42.9343C72.4796 42.9343 72.0857 43.0631 71.7713 43.3207C71.4607 43.5782 71.2277 43.9248 71.0724 44.3604C70.9209 44.7923 70.8452 45.2752 70.8452 45.8093C70.8452 46.3396 70.9209 46.8207 71.0724 47.2525C71.2277 47.6843 71.4607 48.029 71.7713 48.2866C72.0857 48.5404 72.4796 48.6673 72.9531 48.6673ZM82.6761 50.315C81.8239 50.315 81.0852 50.1275 80.4602 49.7525C79.8352 49.3775 79.3504 48.8529 79.0057 48.1786C78.6648 47.5044 78.4943 46.7165 78.4943 45.815C78.4943 44.9135 78.6648 44.1237 79.0057 43.4457C79.3504 42.7676 79.8352 42.2411 80.4602 41.8661C81.0852 41.4911 81.8239 41.3036 82.6761 41.3036C83.5284 41.3036 84.267 41.4911 84.892 41.8661C85.517 42.2411 86 42.7676 86.3409 43.4457C86.6856 44.1237 86.858 44.9135 86.858 45.815C86.858 46.7165 86.6856 47.5044 86.3409 48.1786C86 48.8529 85.517 49.3775 84.892 49.7525C84.267 50.1275 83.5284 50.315 82.6761 50.315ZM82.6875 48.6673C83.1496 48.6673 83.536 48.5404 83.8466 48.2866C84.1572 48.029 84.3883 47.6843 84.5398 47.2525C84.6951 46.8207 84.7727 46.3396 84.7727 45.8093C84.7727 45.2752 84.6951 44.7923 84.5398 44.3604C84.3883 43.9248 84.1572 43.5782 83.8466 43.3207C83.536 43.0631 83.1496 42.9343 82.6875 42.9343C82.214 42.9343 81.8201 43.0631 81.5057 43.3207C81.1951 43.5782 80.9621 43.9248 80.8068 44.3604C80.6553 44.7923 80.5795 45.2752 80.5795 45.8093C80.5795 46.3396 80.6553 46.8207 80.8068 47.2525C80.9621 47.6843 81.1951 48.029 81.5057 48.2866C81.8201 48.5404 82.214 48.6673 82.6875 48.6673ZM92.3991 53.5991C91.6605 53.5991 91.026 53.4987 90.4957 53.2979C89.9654 53.101 89.5393 52.8358 89.2173 52.5025C88.8954 52.1692 88.6719 51.7998 88.5469 51.3945L90.3991 50.9457C90.4825 51.1161 90.6037 51.2847 90.7628 51.4513C90.9219 51.6218 91.1359 51.762 91.4048 51.8718C91.6776 51.9854 92.0204 52.0423 92.4332 52.0423C93.0166 52.0423 93.4995 51.9002 93.8821 51.6161C94.2647 51.3358 94.456 50.8737 94.456 50.2298V48.5763H94.3537C94.2476 48.7885 94.0923 49.0063 93.8878 49.2298C93.687 49.4532 93.42 49.6407 93.0866 49.7923C92.7571 49.9438 92.3423 50.0195 91.8423 50.0195C91.1719 50.0195 90.5639 49.8623 90.0185 49.5479C89.4768 49.2298 89.045 48.7563 88.723 48.1275C88.4048 47.4949 88.2457 46.7032 88.2457 45.7525C88.2457 44.7942 88.4048 43.9854 88.723 43.3263C89.045 42.6635 89.4787 42.1616 90.0241 41.8207C90.5696 41.476 91.1776 41.3036 91.848 41.3036C92.3594 41.3036 92.7798 41.3907 93.1094 41.565C93.4427 41.7354 93.7079 41.9419 93.9048 42.1843C94.1018 42.4229 94.2514 42.6483 94.3537 42.8604H94.4673V41.4173H96.4957V50.2866C96.4957 51.0328 96.3177 51.6502 95.9616 52.1388C95.6056 52.6275 95.1188 52.993 94.5014 53.2354C93.884 53.4779 93.1832 53.5991 92.3991 53.5991ZM92.4162 48.4059C92.8518 48.4059 93.223 48.2998 93.5298 48.0877C93.8366 47.8756 94.0696 47.5707 94.2287 47.1729C94.3878 46.7752 94.4673 46.2979 94.4673 45.7411C94.4673 45.1919 94.3878 44.7108 94.2287 44.2979C94.0734 43.8851 93.8423 43.565 93.5355 43.3377C93.2325 43.1067 92.8594 42.9911 92.4162 42.9911C91.9579 42.9911 91.5753 43.1104 91.2685 43.3491C90.9616 43.5877 90.7306 43.9154 90.5753 44.332C90.42 44.7449 90.3423 45.2146 90.3423 45.7411C90.3423 46.2752 90.42 46.743 90.5753 47.1445C90.7344 47.5423 90.9673 47.8529 91.2741 48.0763C91.5848 48.296 91.9654 48.4059 92.4162 48.4059ZM100.661 38.5082V50.1445H98.6037V38.5082H100.661ZM106.639 50.315C105.764 50.315 105.009 50.1332 104.372 49.7695C103.74 49.4021 103.253 48.8832 102.912 48.2127C102.571 47.5385 102.401 46.7449 102.401 45.832C102.401 44.9343 102.571 44.1464 102.912 43.4684C103.257 42.7866 103.738 42.2563 104.355 41.8775C104.973 41.4949 105.698 41.3036 106.531 41.3036C107.069 41.3036 107.577 41.3907 108.054 41.565C108.535 41.7354 108.959 42.0006 109.327 42.3604C109.698 42.7203 109.99 43.1786 110.202 43.7354C110.414 44.2885 110.52 44.9476 110.52 45.7127V46.3434H103.366V44.957H108.548C108.545 44.5631 108.459 44.2127 108.293 43.9059C108.126 43.5953 107.893 43.351 107.594 43.1729C107.298 42.9949 106.954 42.9059 106.56 42.9059C106.139 42.9059 105.77 43.0082 105.452 43.2127C105.134 43.4135 104.885 43.6786 104.707 44.0082C104.533 44.3339 104.444 44.6919 104.44 45.082V46.2923C104.44 46.7998 104.533 47.2354 104.719 47.5991C104.904 47.9589 105.164 48.2354 105.497 48.4286C105.83 48.618 106.221 48.7127 106.668 48.7127C106.967 48.7127 107.238 48.671 107.48 48.5877C107.723 48.5006 107.933 48.3737 108.111 48.207C108.289 48.0404 108.423 47.8339 108.514 47.5877L110.435 47.8036C110.313 48.3112 110.082 48.7544 109.741 49.1332C109.404 49.5082 108.973 49.7998 108.446 50.0082C107.92 50.2127 107.317 50.315 106.639 50.315ZM116.32 50.1445V38.5082H120.683C121.577 38.5082 122.327 38.6748 122.933 39.0082C123.543 39.3415 124.003 39.7998 124.314 40.3832C124.628 40.9627 124.786 41.6218 124.786 42.3604C124.786 43.1067 124.628 43.7695 124.314 44.3491C124 44.9286 123.536 45.3851 122.922 45.7184C122.308 46.0479 121.553 46.2127 120.655 46.2127H117.763V44.4798H120.371C120.893 44.4798 121.321 44.3888 121.655 44.207C121.988 44.0252 122.234 43.7752 122.393 43.457C122.556 43.1388 122.638 42.7733 122.638 42.3604C122.638 41.9476 122.556 41.5839 122.393 41.2695C122.234 40.9551 121.986 40.7108 121.649 40.5366C121.316 40.3585 120.886 40.2695 120.359 40.2695H118.428V50.1445H116.32ZM128.582 38.5082V50.1445H126.526V38.5082H128.582ZM133.209 50.3207C132.656 50.3207 132.158 50.2222 131.714 50.0252C131.275 49.8245 130.927 49.529 130.669 49.1388C130.415 48.7487 130.288 48.2676 130.288 47.6957C130.288 47.2032 130.379 46.796 130.561 46.4741C130.743 46.1521 130.991 45.8945 131.305 45.7013C131.62 45.5082 131.974 45.3623 132.368 45.2638C132.766 45.1616 133.177 45.0877 133.601 45.0423C134.112 44.9892 134.527 44.9419 134.845 44.9002C135.163 44.8548 135.394 44.7866 135.538 44.6957C135.686 44.601 135.76 44.4551 135.76 44.2582V44.2241C135.76 43.796 135.633 43.4646 135.379 43.2298C135.125 42.9949 134.76 42.8775 134.283 42.8775C133.779 42.8775 133.379 42.9873 133.084 43.207C132.792 43.4267 132.595 43.6862 132.493 43.9854L130.572 43.7127C130.724 43.1824 130.974 42.7392 131.322 42.3832C131.671 42.0233 132.097 41.7544 132.601 41.5763C133.105 41.3945 133.661 41.3036 134.271 41.3036C134.692 41.3036 135.11 41.3529 135.527 41.4513C135.944 41.5498 136.324 41.7127 136.669 41.94C137.014 42.1635 137.29 42.4684 137.499 42.8548C137.711 43.2411 137.817 43.7241 137.817 44.3036V50.1445H135.839V48.9457H135.771C135.646 49.1881 135.47 49.4154 135.243 49.6275C135.019 49.8358 134.737 50.0044 134.396 50.1332C134.059 50.2582 133.663 50.3207 133.209 50.3207ZM133.743 48.8093C134.156 48.8093 134.514 48.7279 134.817 48.565C135.12 48.3983 135.353 48.1786 135.516 47.9059C135.682 47.6332 135.766 47.3358 135.766 47.0138V45.9854C135.701 46.0385 135.591 46.0877 135.436 46.1332C135.285 46.1786 135.114 46.2184 134.925 46.2525C134.735 46.2866 134.548 46.3169 134.362 46.3434C134.177 46.3699 134.016 46.3926 133.879 46.4116C133.572 46.4532 133.298 46.5214 133.055 46.6161C132.813 46.7108 132.622 46.8434 132.482 47.0138C132.341 47.1805 132.271 47.3964 132.271 47.6616C132.271 48.0404 132.41 48.3263 132.686 48.5195C132.963 48.7127 133.315 48.8093 133.743 48.8093ZM140.851 53.4173C140.571 53.4173 140.311 53.3945 140.072 53.3491C139.838 53.3074 139.65 53.2582 139.51 53.2013L139.987 51.5991C140.286 51.6862 140.554 51.7279 140.788 51.7241C141.023 51.7203 141.23 51.6464 141.408 51.5025C141.589 51.3623 141.743 51.1275 141.868 50.7979L142.044 50.3263L138.879 41.4173H141.061L143.072 48.0082H143.163L145.18 41.4173H147.368L143.874 51.2013C143.711 51.6635 143.495 52.0593 143.226 52.3888C142.957 52.7222 142.627 52.976 142.237 53.1502C141.851 53.3282 141.389 53.4173 140.851 53.4173Z" fill="white"/>
<defs>
<clipPath id="clip0_1419_26895">
<rect width="32" height="35.375" fill="white" transform="translate(12 15.457)"/>
</clipPath>
</defs>
</svg>
