<svg width="154" height="12" viewBox="0 0 154 12" fill="none" xmlns="http://www.w3.org/2000/svg">
<path d="M0.166667 6C0.166667 8.94552 2.55448 11.3333 5.5 11.3333C8.44552 11.3333 10.8333 8.94552 10.8333 6C10.8333 3.05448 8.44552 0.666667 5.5 0.666667C2.55448 0.666667 0.166667 3.05448 0.166667 6ZM143.167 6C143.167 8.94552 145.554 11.3333 148.5 11.3333C151.446 11.3333 153.833 8.94552 153.833 6C153.833 3.05448 151.446 0.666667 148.5 0.666667C145.554 0.666667 143.167 3.05448 143.167 6ZM5.5 7H6.49306V5H5.5V7ZM8.47917 7H10.4653V5H8.47917V7ZM12.4514 7H14.4375V5H12.4514V7ZM16.4236 7H18.4097V5H16.4236V7ZM20.3958 7H22.3819V5H20.3958V7ZM24.3681 7H26.3542V5H24.3681V7ZM28.3403 7H30.3264V5H28.3403V7ZM32.3125 7H34.2986V5H32.3125V7ZM36.2847 7H38.2708V5H36.2847V7ZM40.2569 7H42.243V5H40.2569V7ZM44.2292 7H46.2153V5H44.2292V7ZM48.2014 7H50.1875V5H48.2014V7ZM52.1736 7H54.1597V5H52.1736V7ZM56.1458 7H58.1319V5H56.1458V7ZM60.118 7H62.1042V5H60.118V7ZM64.0903 7H66.0764V5H64.0903V7ZM68.0625 7H70.0486V5H68.0625V7ZM72.0347 7H74.0208V5H72.0347V7ZM76.0069 7H77.9931V5H76.0069V7ZM79.9792 7H81.9653V5H79.9792V7ZM83.9514 7H85.9375V5H83.9514V7ZM87.9236 7H89.9097V5H87.9236V7ZM91.8959 7H93.882V5H91.8959V7ZM95.8681 7H97.8542V5H95.8681V7ZM99.8403 7H101.826V5H99.8403V7ZM103.813 7H105.799V5H103.813V7ZM107.785 7H109.771V5H107.785V7ZM111.757 7H113.743V5H111.757V7ZM115.729 7H117.715V5H115.729V7ZM119.701 7H121.688V5H119.701V7ZM123.674 7H125.66V5H123.674V7ZM127.646 7H129.632V5H127.646V7ZM131.618 7H133.604V5H131.618V7ZM135.59 7H137.576V5H135.59V7ZM139.563 7H141.549V5H139.563V7ZM143.535 7H145.521V5H143.535V7ZM147.507 7H148.5V5H147.507V7Z" fill="#2C5E9E"/>
</svg>
