<svg width="276" height="7" viewBox="0 0 276 7" fill="none" xmlns="http://www.w3.org/2000/svg">
<path d="M0.333333 3.5C0.333333 4.97276 1.52724 6.16667 3 6.16667C4.47276 6.16667 5.66667 4.97276 5.66667 3.5C5.66667 2.02724 4.47276 0.833333 3 0.833333C1.52724 0.833333 0.333333 2.02724 0.333333 3.5ZM270.333 3.5C270.333 4.97276 271.527 6.16667 273 6.16667C274.473 6.16667 275.667 4.97276 275.667 3.5C275.667 2.02724 274.473 0.833333 273 0.833333C271.527 0.833333 270.333 2.02724 270.333 3.5ZM3 4H3.99265V3H3V4ZM5.97794 4H7.96323V3H5.97794V4ZM9.94853 4H11.9338V3H9.94853V4ZM13.9191 4H15.9044V3H13.9191V4ZM17.8897 4H19.875V3H17.8897V4ZM21.8603 4H23.8456V3H21.8603V4ZM25.8309 4H27.8162V3H25.8309V4ZM29.8015 4H31.7868V3H29.8015V4ZM33.7721 4H35.7574V3H33.7721V4ZM37.7426 4H39.7279V3H37.7426V4ZM41.7132 4H43.6985V3H41.7132V4ZM45.6838 4H47.6691V3H45.6838V4ZM49.6544 4H51.6397V3H49.6544V4ZM53.625 4H55.6103V3H53.625V4ZM57.5956 4H59.5809V3H57.5956V4ZM61.5662 4H63.5515V3H61.5662V4ZM65.5368 4H67.5221V3H65.5368V4ZM69.5074 4H71.4926V3H69.5074V4ZM73.4779 4H75.4632V3H73.4779V4ZM77.4485 4H79.4338V3H77.4485V4ZM81.4191 4H83.4044V3H81.4191V4ZM85.3897 4H87.375V3H85.3897V4ZM89.3603 4H91.3456V3H89.3603V4ZM93.3308 4H95.3161V3H93.3308V4ZM97.3014 4H99.2867V3H97.3014V4ZM101.272 4H103.257V3H101.272V4ZM105.243 4H107.228V3H105.243V4ZM109.213 4H111.198V3H109.213V4ZM113.184 4H115.169V3H113.184V4ZM117.154 4H119.14V3H117.154V4ZM121.125 4H123.11V3H121.125V4ZM125.095 4H127.081V3H125.095V4ZM129.066 4H131.051V3H129.066V4ZM133.037 4H135.022V3H133.037V4ZM137.007 4H138.993V3H137.007V4ZM140.978 4H142.963V3H140.978V4ZM144.948 4H146.934V3H144.948V4ZM148.919 4H150.904V3H148.919V4ZM152.89 4H154.875V3H152.89V4ZM156.86 4H158.845V3H156.86V4ZM160.831 4H162.816V3H160.831V4ZM164.801 4H166.787V3H164.801V4ZM168.772 4H170.757V3H168.772V4ZM172.742 4H174.728V3H172.742V4ZM176.713 4H178.698V3H176.713V4ZM180.684 4H182.669V3H180.684V4ZM184.654 4H186.639V3H184.654V4ZM188.625 4H190.61V3H188.625V4ZM192.595 4H194.581V3H192.595V4ZM196.566 4H198.551V3H196.566V4ZM200.537 4H202.522V3H200.537V4ZM204.507 4H206.492V3H204.507V4ZM208.478 4H210.463V3H208.478V4ZM212.448 4H214.434V3H212.448V4ZM216.419 4H218.404V3H216.419V4ZM220.389 4H222.375V3H220.389V4ZM224.36 4H226.345V3H224.36V4ZM228.331 4H230.316V3H228.331V4ZM232.301 4H234.286V3H232.301V4ZM236.272 4H238.257V3H236.272V4ZM240.242 4H242.228V3H240.242V4ZM244.213 4H246.198V3H244.213V4ZM248.184 4H250.169V3H248.184V4ZM252.154 4H254.139V3H252.154V4ZM256.125 4H258.11V3H256.125V4ZM260.095 4H262.081V3H260.095V4ZM264.066 4H266.051V3H264.066V4ZM268.036 4H270.022V3H268.036V4ZM272.007 4H273V3H272.007V4Z" fill="#2C5E9E"/>
</svg>
