<svg width="54" height="7" viewBox="0 0 54 7" fill="none" xmlns="http://www.w3.org/2000/svg">
<path d="M47.8333 3.5C47.8333 4.97276 49.0272 6.16667 50.5 6.16667C51.9728 6.16667 53.1667 4.97276 53.1667 3.5C53.1667 2.02724 51.9728 0.833333 50.5 0.833333C49.0272 0.833333 47.8333 2.02724 47.8333 3.5ZM0.5 3.5V4H1.46154V3.5V3H0.5V3.5ZM3.38462 3.5V4H5.30769V3.5V3H3.38462V3.5ZM7.23077 3.5V4H9.15385V3.5V3H7.23077V3.5ZM11.0769 3.5V4H13V3.5V3H11.0769V3.5ZM14.9231 3.5V4H16.8462V3.5V3H14.9231V3.5ZM18.7692 3.5V4H20.6923V3.5V3H18.7692V3.5ZM22.6154 3.5V4H24.5385V3.5V3H22.6154V3.5ZM26.4615 3.5V4H28.3846V3.5V3H26.4615V3.5ZM30.3077 3.5V4H32.2308V3.5V3H30.3077V3.5ZM34.1538 3.5V4H36.0769V3.5V3H34.1538V3.5ZM38 3.5V4H39.9231V3.5V3H38V3.5ZM41.8461 3.5V4H43.7692V3.5V3H41.8461V3.5ZM45.6923 3.5V4H47.6154V3.5V3H45.6923V3.5ZM49.5385 3.5V4H50.5V3.5V3H49.5385V3.5Z" fill="#2C5E9E"/>
</svg>
