<svg width="45" height="34" viewBox="0 0 45 34" fill="none" xmlns="http://www.w3.org/2000/svg">
<path d="M1.44531 8.11111C1.44531 4.18375 4.62907 1 8.55642 1H37.0009C40.9282 1 44.112 4.18375 44.112 8.11111V25.8889C44.112 29.8162 40.9282 33 37.0009 33H8.55643C4.62907 33 1.44531 29.8162 1.44531 25.8889V8.11111Z" stroke="#DEDFE1" stroke-width="1.77778"/>
<g clip-path="url(#clip0_1621_38167)">
<path d="M13.7242 28.3308V26.8674C13.7242 26.3063 13.3826 25.9405 12.7972 25.9405C12.5045 25.9405 12.1874 26.0381 11.9679 26.3552C11.7972 26.0868 11.5533 25.9405 11.1874 25.9405C10.9434 25.9405 10.6996 26.0136 10.5044 26.2819V25.9893H9.99219V28.3308H10.5044V27.0381C10.5044 26.6235 10.724 26.4283 11.0655 26.4283C11.4069 26.4283 11.5777 26.6478 11.5777 27.0381V28.3308H12.09V27.0381C12.09 26.6235 12.3337 26.4283 12.6509 26.4283C12.9924 26.4283 13.1631 26.6478 13.1631 27.0381V28.3308H13.7242ZM21.3099 25.9893H20.4806V25.2819H19.9684V25.9893H19.505V26.4526H19.9683V27.5259C19.9683 28.0626 20.1879 28.3796 20.7733 28.3796C20.9929 28.3796 21.2366 28.3065 21.4075 28.2089L21.2611 27.7698C21.1147 27.8674 20.9441 27.8918 20.8221 27.8918C20.5782 27.8918 20.4806 27.7455 20.4806 27.5015V26.4526H21.3099V25.9893ZM25.6516 25.9404C25.359 25.9404 25.1639 26.0868 25.0419 26.2819V25.9893H24.5296V28.3308H25.0419V27.0137C25.0419 26.6235 25.2125 26.4039 25.5296 26.4039C25.6272 26.4039 25.7492 26.4284 25.8467 26.4527L25.9931 25.9649C25.8955 25.9405 25.7492 25.9405 25.6516 25.9405M19.0903 26.1845C18.8463 26.0137 18.5049 25.9406 18.139 25.9406C17.5536 25.9406 17.1634 26.2333 17.1634 26.6967C17.1634 27.0871 17.4561 27.3065 17.9683 27.3797L18.2122 27.4042C18.4805 27.4528 18.6269 27.5261 18.6269 27.6481C18.6269 27.8187 18.4317 27.9407 18.0902 27.9407C17.7486 27.9407 17.4804 27.8187 17.3096 27.6968L17.0657 28.0871C17.3341 28.2822 17.7 28.3797 18.0657 28.3797C18.7487 28.3797 19.1391 28.0627 19.1391 27.6236C19.1391 27.2089 18.822 26.9894 18.3341 26.9163L18.0902 26.8918C17.8706 26.8674 17.7 26.8187 17.7 26.6724C17.7 26.5016 17.8706 26.4041 18.139 26.4041C18.4317 26.4041 18.7244 26.5259 18.8707 26.5992L19.0903 26.1845ZM32.7009 25.9406C32.4081 25.9406 32.213 26.0869 32.091 26.2821V25.9894H31.5787V28.3309H32.091V27.0138C32.091 26.6236 32.2617 26.4041 32.5787 26.4041C32.6764 26.4041 32.7984 26.4285 32.896 26.4528L33.0423 25.9651C32.9447 25.9406 32.7984 25.9406 32.7009 25.9406ZM26.1639 27.1602C26.1639 27.8675 26.6516 28.3797 27.4079 28.3797C27.7493 28.3797 27.9932 28.3066 28.2371 28.1115L27.9932 27.6968C27.7981 27.8432 27.603 27.9163 27.3834 27.9163C26.9687 27.9163 26.6761 27.6236 26.6761 27.1602C26.6761 26.7212 26.9687 26.4284 27.3834 26.4041C27.603 26.4041 27.7981 26.4772 27.9932 26.6236L28.2371 26.2089C27.9932 26.0137 27.7493 25.9406 27.4079 25.9406C26.6516 25.9406 26.1639 26.4528 26.1639 27.1602ZM30.8959 27.1602V25.9894H30.3836V26.2821C30.2129 26.0626 29.969 25.9406 29.6519 25.9406C28.9933 25.9406 28.4811 26.4528 28.4811 27.1602C28.4811 27.8675 28.9933 28.3797 29.6519 28.3797C29.9933 28.3797 30.2373 28.2578 30.3836 28.0383V28.3309H30.8959V27.1602ZM29.0176 27.1602C29.0176 26.7455 29.286 26.4041 29.725 26.4041C30.1396 26.4041 30.4324 26.7212 30.4324 27.1602C30.4324 27.5748 30.1396 27.9163 29.725 27.9163C29.286 27.8918 29.0176 27.5748 29.0176 27.1602ZM22.8954 25.9406C22.2124 25.9406 21.7245 26.4284 21.7245 27.1602C21.7245 27.8919 22.2123 28.3797 22.9197 28.3797C23.2612 28.3797 23.6027 28.2822 23.8711 28.0627L23.6271 27.6968C23.432 27.8432 23.1881 27.9407 22.9442 27.9407C22.6271 27.9407 22.31 27.7944 22.2367 27.3796H23.9686V27.1846C23.9931 26.4284 23.5541 25.9406 22.8954 25.9406ZM22.8953 26.3796C23.2123 26.3796 23.432 26.5748 23.4806 26.9407H22.2611C22.3099 26.6236 22.5294 26.3796 22.8953 26.3796ZM35.6033 27.1602V25.0625H35.0911V26.2821C34.9203 26.0626 34.6764 25.9406 34.3593 25.9406C33.7007 25.9406 33.1885 26.4528 33.1885 27.1602C33.1885 27.8675 33.7007 28.3797 34.3593 28.3797C34.7009 28.3797 34.9447 28.2578 35.0911 28.0383V28.3309H35.6033V27.1602ZM33.7252 27.1602C33.7252 26.7455 33.9934 26.4041 34.4325 26.4041C34.8472 26.4041 35.1399 26.7212 35.1399 27.1602C35.1399 27.5748 34.8472 27.9163 34.4325 27.9163C33.9934 27.8918 33.7252 27.5748 33.7252 27.1602ZM16.6022 27.1602V25.9894H16.09V26.2821C15.9192 26.0626 15.6753 25.9406 15.3582 25.9406C14.6996 25.9406 14.1874 26.4528 14.1874 27.1602C14.1874 27.8675 14.6996 28.3797 15.3582 28.3797C15.6997 28.3797 15.9436 28.2578 16.09 28.0383V28.3309H16.6022V27.1602ZM14.6996 27.1602C14.6996 26.7455 14.968 26.4041 15.407 26.4041C15.8216 26.4041 16.1144 26.7212 16.1144 27.1602C16.1144 27.5748 15.8216 27.9163 15.407 27.9163C14.968 27.8918 14.6996 27.5748 14.6996 27.1602Z" fill="black"/>
<path d="M18.9219 8.21094H26.6052V22.0166H18.9219V8.21094Z" fill="#FF5F00"/>
<path d="M19.409 15.113C19.409 12.308 20.7261 9.82003 22.7506 8.21014C21.2628 7.03936 19.3847 6.33203 17.3358 6.33203C12.4817 6.33203 8.55469 10.259 8.55469 15.113C8.55469 19.967 12.4817 23.894 17.3357 23.894C19.3846 23.894 21.2627 23.1867 22.7506 22.0158C20.7261 20.4304 19.409 17.918 19.409 15.113Z" fill="#EB001B"/>
<path d="M36.9771 15.113C36.9771 19.9669 33.0501 23.894 28.1961 23.894C26.1472 23.894 24.2691 23.1867 22.7812 22.0158C24.8301 20.406 26.1229 17.918 26.1229 15.113C26.1229 12.308 24.8057 9.82003 22.7812 8.21014C24.269 7.03936 26.1472 6.33203 28.1961 6.33203C33.0501 6.33203 36.9771 10.2835 36.9771 15.113Z" fill="#F79E1B"/>
</g>
<defs>
<clipPath id="clip0_1621_38167">
<rect width="28.4444" height="22.1111" fill="white" transform="translate(8.55469 6.33203)"/>
</clipPath>
</defs>
</svg>
