<svg width="34" height="34" viewBox="0 0 34 34" fill="none" xmlns="http://www.w3.org/2000/svg">
<path d="M0.183594 3.62842C0.183594 1.62665 1.80634 0.00390625 3.80811 0.00390625H30.1991C32.2008 0.00390625 33.8236 1.62666 33.8236 3.62842V30.0194C33.8236 32.0212 32.2008 33.6439 30.1991 33.6439H3.8081C1.80634 33.6439 0.183594 32.0212 0.183594 30.0194V3.62842Z" fill="#CCD8E8" fill-opacity="0.3"/>
<g clip-path="url(#clip0_1149_25714)">
<path d="M9.59375 11.0687L12.0257 8.63672L12.6179 9.22886L10.1859 11.6608L9.59375 11.0687ZM13.8431 11.6803L16.2754 9.2489L16.8675 9.84104L14.4353 12.2724L13.8431 11.6803ZM22.1837 23.6598L24.6163 21.2284L25.2084 21.8209L22.7758 24.2523L22.1837 23.6598ZM21.5763 19.3841L24.0089 16.9527L24.601 17.5452L22.1681 19.9766L21.5763 19.3841Z" fill="#ACB8BF"/>
<path d="M24.3008 25.4054L22.8952 12.8149L21.0111 10.9308L8.42057 9.52518C7.82245 9.46537 7.94207 10.9607 8.62992 11.2897L18.1102 15.7158L22.5363 25.1961C22.8653 25.8839 24.3606 26.0035 24.3008 25.4054Z" fill="#42ADE2"/>
<path d="M25.769 9.67624C26.4269 8.39027 25.44 7.40336 24.154 8.0613C22.5092 8.89868 20.0868 10.7828 17.6345 13.2052C13.8065 17.0332 11.3541 20.8313 12.1616 21.6686C12.9691 22.4761 16.7971 20.0238 20.6251 16.1958C23.0475 13.7734 24.9316 11.3211 25.769 9.67624Z" fill="#DAE3EA"/>
<path d="M14.1322 25.2591L13.6537 20.8329L12.9958 20.175L8.56968 19.6965C8.36034 19.6666 8.39024 20.2049 8.62949 20.3245L11.9491 21.8797L13.5042 25.1993C13.6238 25.4385 14.1622 25.4684 14.1322 25.2591Z" fill="#42ADE2"/>
<path d="M13.4728 21.0686C12.127 22.4144 10.9009 23.3415 10.7214 23.1321C10.542 22.9527 11.4691 21.6966 12.785 20.3509C14.1308 19.0051 15.3569 18.078 15.5663 18.2873C15.7158 18.4668 14.7887 19.7228 13.4728 21.0686Z" fill="#ACB8BF"/>
<path d="M25.3192 10.1537C25.4688 9.61536 25.409 9.10695 25.08 8.74808C24.751 8.41911 24.2127 8.32939 23.7043 8.50883L22.6875 9.13686C23.1959 8.95742 23.9436 9.22658 24.2725 9.55555C24.6314 9.91442 24.8707 10.6322 24.6912 11.1406L25.3192 10.1537Z" fill="#3E4347"/>
<path d="M23.4805 10.1533L25.1714 8.46094L25.3619 8.65114L23.6707 10.3438L23.4805 10.1533Z" fill="#DAE3EA"/>
</g>
<defs>
<clipPath id="clip0_1149_25714">
<rect width="19.14" height="19.14" fill="white" transform="translate(7.43359 7.25391)"/>
</clipPath>
</defs>
</svg>
