<svg width="198" height="67" viewBox="0 0 198 67" fill="none" xmlns="http://www.w3.org/2000/svg">
<path d="M0 8.14453C0 3.72625 3.58172 0.144531 8 0.144531H190C194.418 0.144531 198 3.72625 198 8.14453V58.1445C198 62.5628 194.418 66.1445 190 66.1445H8C3.58172 66.1445 0 62.5628 0 58.1445V8.14453Z" fill="#181818"/>
<path d="M38.6621 50.6103C36.5945 52.6146 34.337 52.2981 32.1638 51.3487C29.8641 50.3782 27.7543 50.336 25.328 51.3487C22.2898 52.6568 20.6863 52.277 18.8719 50.6103C8.57591 39.9978 10.095 23.8365 21.7835 23.2457C24.6317 23.3934 26.615 24.807 28.2817 24.9336C30.7713 24.4272 33.1555 22.9714 35.8138 23.1613C38.9997 23.4145 41.4049 24.6804 42.9873 26.959C36.4046 30.9044 37.9659 39.5758 44 42.0021C42.7974 45.1669 41.2361 48.3105 38.641 50.6314L38.6621 50.6103ZM28.0708 23.1191C27.7543 18.4142 31.5731 14.5321 35.9615 14.1523C36.5734 19.5957 31.0245 23.6466 28.0708 23.1191Z" fill="white"/>
<path d="M57.6506 26.1445H56.358L60.0966 15.9627H61.3693L65.108 26.1445H63.8153L60.7727 17.5735H60.6932L57.6506 26.1445ZM58.1278 22.1673H63.3381V23.261H58.1278V22.1673ZM71.8221 18.5082L68.9982 26.1445H67.805L64.9812 18.5082H66.2539L68.3619 24.5934H68.4414L70.5494 18.5082H71.8221ZM75.3855 26.3235C74.9016 26.3235 74.4624 26.2324 74.068 26.0501C73.6736 25.8645 73.3604 25.5977 73.1284 25.2496C72.8964 24.8983 72.7804 24.4741 72.7804 23.9769C72.7804 23.5394 72.8665 23.1848 73.0389 22.913C73.2112 22.6379 73.4416 22.4225 73.7299 22.2667C74.0183 22.1109 74.3365 21.9949 74.6845 21.9187C75.0358 21.8391 75.3888 21.7762 75.7434 21.7298C76.2074 21.6701 76.5836 21.6254 76.872 21.5955C77.1636 21.5624 77.3758 21.5077 77.5083 21.4315C77.6442 21.3552 77.7122 21.2227 77.7122 21.0337V20.994C77.7122 20.5034 77.5779 20.1223 77.3095 19.8505C77.0443 19.5787 76.6416 19.4428 76.1014 19.4428C75.5413 19.4428 75.1021 19.5655 74.7839 19.8107C74.4657 20.056 74.242 20.3178 74.1127 20.5962L72.9991 20.1985C73.198 19.7345 73.4631 19.3732 73.7946 19.1147C74.1293 18.8529 74.4939 18.6706 74.8883 18.5678C75.286 18.4618 75.6771 18.4087 76.0616 18.4087C76.3069 18.4087 76.5886 18.4386 76.9068 18.4982C77.2283 18.5546 77.5382 18.6722 77.8365 18.8512C78.1381 19.0302 78.3883 19.3003 78.5872 19.6616C78.786 20.0228 78.8855 20.5067 78.8855 21.1133V26.1445H77.7122V25.1104H77.6525C77.573 25.2762 77.4404 25.4535 77.2548 25.6424C77.0692 25.8313 76.8223 25.9921 76.514 26.1246C76.2058 26.2572 75.8296 26.3235 75.3855 26.3235ZM75.5645 25.2695C76.0285 25.2695 76.4196 25.1784 76.7377 24.9961C77.0592 24.8138 77.3012 24.5785 77.4636 24.2901C77.6293 24.0018 77.7122 23.6985 77.7122 23.3803V22.3065C77.6625 22.3661 77.5531 22.4208 77.3841 22.4705C77.2183 22.5169 77.0261 22.5584 76.8074 22.5948C76.5919 22.628 76.3815 22.6578 76.176 22.6843C75.9738 22.7075 75.8097 22.7274 75.6838 22.744C75.3788 22.7837 75.0938 22.8484 74.8287 22.9379C74.5668 23.024 74.3547 23.1549 74.1923 23.3306C74.0332 23.503 73.9537 23.7383 73.9537 24.0366C73.9537 24.4442 74.1045 24.7525 74.4061 24.9613C74.711 25.1668 75.0971 25.2695 75.5645 25.2695ZM81.027 26.1445V18.5082H82.2003V26.1445H81.027ZM81.6236 17.2354C81.3949 17.2354 81.1977 17.1576 81.032 17.0018C80.8696 16.846 80.7884 16.6587 80.7884 16.44C80.7884 16.2212 80.8696 16.034 81.032 15.8782C81.1977 15.7224 81.3949 15.6445 81.6236 15.6445C81.8523 15.6445 82.0478 15.7224 82.2102 15.8782C82.3759 16.034 82.4588 16.2212 82.4588 16.44C82.4588 16.6587 82.3759 16.846 82.2102 17.0018C82.0478 17.1576 81.8523 17.2354 81.6236 17.2354ZM85.5225 15.9627V26.1445H84.3493V15.9627H85.5225ZM89.9187 26.3235C89.4348 26.3235 88.9956 26.2324 88.6012 26.0501C88.2068 25.8645 87.8936 25.5977 87.6616 25.2496C87.4296 24.8983 87.3136 24.4741 87.3136 23.9769C87.3136 23.5394 87.3997 23.1848 87.5721 22.913C87.7444 22.6379 87.9748 22.4225 88.2631 22.2667C88.5515 22.1109 88.8697 21.9949 89.2177 21.9187C89.569 21.8391 89.922 21.7762 90.2766 21.7298C90.7406 21.6701 91.1168 21.6254 91.4052 21.5955C91.6969 21.5624 91.909 21.5077 92.0415 21.4315C92.1774 21.3552 92.2454 21.2227 92.2454 21.0337V20.994C92.2454 20.5034 92.1112 20.1223 91.8427 19.8505C91.5775 19.5787 91.1748 19.4428 90.6346 19.4428C90.0745 19.4428 89.6353 19.5655 89.3171 19.8107C88.9989 20.056 88.7752 20.3178 88.646 20.5962L87.5323 20.1985C87.7312 19.7345 87.9963 19.3732 88.3278 19.1147C88.6625 18.8529 89.0271 18.6706 89.4215 18.5678C89.8192 18.4618 90.2103 18.4087 90.5948 18.4087C90.8401 18.4087 91.1218 18.4386 91.44 18.4982C91.7615 18.5546 92.0714 18.6722 92.3697 18.8512C92.6713 19.0302 92.9215 19.3003 93.1204 19.6616C93.3192 20.0228 93.4187 20.5067 93.4187 21.1133V26.1445H92.2454V25.1104H92.1857C92.1062 25.2762 91.9736 25.4535 91.788 25.6424C91.6024 25.8313 91.3555 25.9921 91.0472 26.1246C90.739 26.2572 90.3628 26.3235 89.9187 26.3235ZM90.0977 25.2695C90.5617 25.2695 90.9528 25.1784 91.271 24.9961C91.5924 24.8138 91.8344 24.5785 91.9968 24.2901C92.1625 24.0018 92.2454 23.6985 92.2454 23.3803V22.3065C92.1957 22.3661 92.0863 22.4208 91.9173 22.4705C91.7515 22.5169 91.5593 22.5584 91.3406 22.5948C91.1251 22.628 90.9147 22.6578 90.7092 22.6843C90.507 22.7075 90.3429 22.7274 90.217 22.744C89.9121 22.7837 89.627 22.8484 89.3619 22.9379C89.1 23.024 88.8879 23.1549 88.7255 23.3306C88.5664 23.503 88.4869 23.7383 88.4869 24.0366C88.4869 24.4442 88.6377 24.7525 88.9393 24.9613C89.2442 25.1668 89.6303 25.2695 90.0977 25.2695ZM95.7193 26.1445V15.9627H96.8926V19.7212H96.992C97.0782 19.5887 97.1975 19.4196 97.35 19.2141C97.5057 19.0053 97.7278 18.8197 98.0162 18.6573C98.3078 18.4916 98.7022 18.4087 99.1994 18.4087C99.8424 18.4087 100.409 18.5695 100.9 18.891C101.39 19.2125 101.773 19.6682 102.048 20.2582C102.323 20.8481 102.461 21.5442 102.461 22.3462C102.461 23.1549 102.323 23.8559 102.048 24.4492C101.773 25.0392 101.392 25.4966 100.905 25.8214C100.417 26.1429 99.8556 26.3036 99.2193 26.3036C98.7288 26.3036 98.336 26.2224 98.041 26.06C97.746 25.8943 97.519 25.707 97.3599 25.4982C97.2008 25.2861 97.0782 25.1104 96.992 24.9712H96.8528V26.1445H95.7193ZM96.8727 22.3263C96.8727 22.9031 96.9572 23.4118 97.1262 23.8526C97.2953 24.2901 97.5422 24.6332 97.867 24.8817C98.1918 25.127 98.5895 25.2496 99.0602 25.2496C99.5507 25.2496 99.96 25.1204 100.288 24.8619C100.62 24.6 100.868 24.2487 101.034 23.8079C101.203 23.3638 101.287 22.8699 101.287 22.3263C101.287 21.7894 101.205 21.3055 101.039 20.8746C100.876 20.4405 100.63 20.0974 100.298 19.8455C99.97 19.5903 99.5574 19.4627 99.0602 19.4627C98.5829 19.4627 98.1819 19.5837 97.8571 19.8256C97.5323 20.0643 97.287 20.399 97.1213 20.8299C96.9556 21.2575 96.8727 21.7563 96.8727 22.3263ZM105.429 15.9627V26.1445H104.256V15.9627H105.429ZM110.779 26.3036C110.044 26.3036 109.409 26.1412 108.875 25.8164C108.345 25.4883 107.936 25.0309 107.647 24.4442C107.362 23.8543 107.22 23.1682 107.22 22.386C107.22 21.6038 107.362 20.9144 107.647 20.3178C107.936 19.7179 108.337 19.2506 108.85 18.9158C109.368 18.5778 109.971 18.4087 110.66 18.4087C111.058 18.4087 111.451 18.475 111.838 18.6076C112.226 18.7402 112.579 18.9556 112.897 19.2539C113.216 19.5489 113.469 19.94 113.658 20.4272C113.847 20.9144 113.941 21.5143 113.941 22.2269V22.7241H108.055V21.7099H112.748C112.748 21.279 112.662 20.8945 112.49 20.5565C112.321 20.2184 112.079 19.9516 111.764 19.756C111.452 19.5605 111.084 19.4627 110.66 19.4627C110.193 19.4627 109.788 19.5787 109.447 19.8107C109.109 20.0394 108.849 20.3377 108.667 20.7056C108.484 21.0735 108.393 21.4679 108.393 21.8888V22.565C108.393 23.1417 108.493 23.6306 108.691 24.0316C108.894 24.4293 109.174 24.7326 109.532 24.9414C109.89 25.1469 110.306 25.2496 110.779 25.2496C111.088 25.2496 111.366 25.2066 111.615 25.1204C111.867 25.0309 112.084 24.8983 112.266 24.7227C112.448 24.5437 112.589 24.3216 112.689 24.0565L113.822 24.3746C113.703 24.7591 113.502 25.0972 113.221 25.3888C112.939 25.6772 112.591 25.9026 112.176 26.065C111.762 26.2241 111.297 26.3036 110.779 26.3036ZM128.414 21.0536C128.414 22.1275 128.22 23.0555 127.832 23.8377C127.444 24.6199 126.912 25.2231 126.236 25.6474C125.56 26.0716 124.788 26.2837 123.919 26.2837C123.051 26.2837 122.279 26.0716 121.603 25.6474C120.926 25.2231 120.395 24.6199 120.007 23.8377C119.619 23.0555 119.425 22.1275 119.425 21.0536C119.425 19.9798 119.619 19.0517 120.007 18.2695C120.395 17.4873 120.926 16.8841 121.603 16.4599C122.279 16.0356 123.051 15.8235 123.919 15.8235C124.788 15.8235 125.56 16.0356 126.236 16.4599C126.912 16.8841 127.444 17.4873 127.832 18.2695C128.22 19.0517 128.414 19.9798 128.414 21.0536ZM127.221 21.0536C127.221 20.172 127.073 19.4279 126.778 18.8214C126.486 18.2148 126.09 17.7558 125.59 17.4442C125.093 17.1327 124.536 16.9769 123.919 16.9769C123.303 16.9769 122.744 17.1327 122.244 17.4442C121.747 17.7558 121.351 18.2148 121.056 18.8214C120.764 19.4279 120.618 20.172 120.618 21.0536C120.618 21.9353 120.764 22.6793 121.056 23.2859C121.351 23.8924 121.747 24.3514 122.244 24.663C122.744 24.9746 123.303 25.1303 123.919 25.1303C124.536 25.1303 125.093 24.9746 125.59 24.663C126.09 24.3514 126.486 23.8924 126.778 23.2859C127.073 22.6793 127.221 21.9353 127.221 21.0536ZM131.501 21.5508V26.1445H130.328V18.5082H131.461V19.7013H131.561C131.74 19.3136 132.011 19.002 132.376 18.7667C132.741 18.5281 133.211 18.4087 133.788 18.4087C134.305 18.4087 134.757 18.5148 135.145 18.7269C135.533 18.9357 135.835 19.2539 136.05 19.6815C136.266 20.1057 136.373 20.6426 136.373 21.2923V26.1445H135.2V21.3718C135.2 20.7719 135.044 20.3046 134.733 19.9698C134.421 19.6317 133.993 19.4627 133.45 19.4627C133.075 19.4627 132.741 19.5439 132.446 19.7063C132.154 19.8687 131.924 20.1057 131.755 20.4173C131.586 20.7288 131.501 21.1067 131.501 21.5508Z" fill="white"/>
<path d="M57.1477 50.1445V38.5082H61.5114C62.4053 38.5082 63.1553 38.6748 63.7614 39.0082C64.3712 39.3415 64.8314 39.7998 65.142 40.3832C65.4564 40.9627 65.6136 41.6218 65.6136 42.3604C65.6136 43.1067 65.4564 43.7695 65.142 44.3491C64.8277 44.9286 64.3636 45.3851 63.75 45.7184C63.1364 46.0479 62.3807 46.2127 61.483 46.2127H58.5909V44.4798H61.1989C61.7216 44.4798 62.1496 44.3888 62.483 44.207C62.8163 44.0252 63.0625 43.7752 63.2216 43.457C63.3845 43.1388 63.4659 42.7733 63.4659 42.3604C63.4659 41.9476 63.3845 41.5839 63.2216 41.2695C63.0625 40.9551 62.8144 40.7108 62.4773 40.5366C62.1439 40.3585 61.714 40.2695 61.1875 40.2695H59.2557V50.1445H57.1477ZM69.4105 38.5082V50.1445H67.3537V38.5082H69.4105ZM74.0369 50.3207C73.4839 50.3207 72.9858 50.2222 72.5426 50.0252C72.1032 49.8245 71.7547 49.529 71.4972 49.1388C71.2434 48.7487 71.1165 48.2676 71.1165 47.6957C71.1165 47.2032 71.2074 46.796 71.3892 46.4741C71.571 46.1521 71.8191 45.8945 72.1335 45.7013C72.4479 45.5082 72.8021 45.3623 73.196 45.2638C73.5938 45.1616 74.0047 45.0877 74.429 45.0423C74.9403 44.9892 75.3551 44.9419 75.6733 44.9002C75.9915 44.8548 76.2225 44.7866 76.3665 44.6957C76.5142 44.601 76.5881 44.4551 76.5881 44.2582V44.2241C76.5881 43.796 76.4612 43.4646 76.2074 43.2298C75.9536 42.9949 75.5881 42.8775 75.1108 42.8775C74.607 42.8775 74.2074 42.9873 73.9119 43.207C73.6203 43.4267 73.4233 43.6862 73.321 43.9854L71.4006 43.7127C71.5521 43.1824 71.8021 42.7392 72.1506 42.3832C72.4991 42.0233 72.9252 41.7544 73.429 41.5763C73.9328 41.3945 74.4896 41.3036 75.0994 41.3036C75.5199 41.3036 75.9384 41.3529 76.3551 41.4513C76.7718 41.5498 77.1525 41.7127 77.4972 41.94C77.8419 42.1635 78.1184 42.4684 78.3267 42.8548C78.5388 43.2411 78.6449 43.7241 78.6449 44.3036V50.1445H76.6676V48.9457H76.5994C76.4744 49.1881 76.2983 49.4154 76.071 49.6275C75.8475 49.8358 75.5653 50.0044 75.2244 50.1332C74.8873 50.2582 74.4915 50.3207 74.0369 50.3207ZM74.571 48.8093C74.9839 48.8093 75.3419 48.7279 75.6449 48.565C75.9479 48.3983 76.1809 48.1786 76.3438 47.9059C76.5104 47.6332 76.5938 47.3358 76.5938 47.0138V45.9854C76.5294 46.0385 76.4195 46.0877 76.2642 46.1332C76.1127 46.1786 75.9422 46.2184 75.7528 46.2525C75.5634 46.2866 75.3759 46.3169 75.1903 46.3434C75.0047 46.3699 74.8438 46.3926 74.7074 46.4116C74.4006 46.4532 74.1259 46.5214 73.8835 46.6161C73.6411 46.7108 73.4498 46.8434 73.3097 47.0138C73.1695 47.1805 73.0994 47.3964 73.0994 47.6616C73.0994 48.0404 73.2377 48.3263 73.5142 48.5195C73.7907 48.7127 74.143 48.8093 74.571 48.8093ZM81.679 53.4173C81.3987 53.4173 81.1392 53.3945 80.9006 53.3491C80.6657 53.3074 80.4782 53.2582 80.3381 53.2013L80.8153 51.5991C81.1146 51.6862 81.3816 51.7279 81.6165 51.7241C81.8513 51.7203 82.0578 51.6464 82.2358 51.5025C82.4176 51.3623 82.571 51.1275 82.696 50.7979L82.8722 50.3263L79.7074 41.4173H81.8892L83.9006 48.0082H83.9915L86.0085 41.4173H88.196L84.7017 51.2013C84.5388 51.6635 84.3229 52.0593 84.054 52.3888C83.785 52.7222 83.4555 52.976 83.0653 53.1502C82.679 53.3282 82.2169 53.4173 81.679 53.4173ZM96.517 43.7241L94.642 43.9286C94.589 43.7392 94.4962 43.5612 94.3636 43.3945C94.2348 43.2279 94.0606 43.0934 93.8409 42.9911C93.6212 42.8888 93.3523 42.8377 93.0341 42.8377C92.6061 42.8377 92.2462 42.9305 91.9545 43.1161C91.6667 43.3017 91.5246 43.5423 91.5284 43.8377C91.5246 44.0915 91.6174 44.2979 91.8068 44.457C92 44.6161 92.3182 44.7468 92.7614 44.8491L94.25 45.1673C95.0758 45.3453 95.6894 45.6275 96.0909 46.0138C96.4962 46.4002 96.7008 46.9059 96.7045 47.5309C96.7008 48.0801 96.5398 48.565 96.2216 48.9854C95.9072 49.4021 95.4697 49.7279 94.9091 49.9627C94.3485 50.1976 93.7045 50.315 92.9773 50.315C91.9091 50.315 91.0492 50.0915 90.3977 49.6445C89.7462 49.1938 89.358 48.5669 89.233 47.7638L91.2386 47.5707C91.3295 47.9646 91.5227 48.262 91.8182 48.4627C92.1136 48.6635 92.4981 48.7638 92.9716 48.7638C93.4602 48.7638 93.8523 48.6635 94.1477 48.4627C94.447 48.262 94.5966 48.0138 94.5966 47.7184C94.5966 47.4684 94.5 47.262 94.3068 47.0991C94.1174 46.9362 93.822 46.8112 93.4205 46.7241L91.9318 46.4116C91.0947 46.2373 90.4754 45.9438 90.0739 45.5309C89.6723 45.1142 89.4735 44.5877 89.4773 43.9513C89.4735 43.4135 89.6193 42.9476 89.9148 42.5536C90.214 42.1559 90.6288 41.8491 91.1591 41.6332C91.6932 41.4135 92.3087 41.3036 93.0057 41.3036C94.0284 41.3036 94.8333 41.5214 95.4205 41.957C96.0114 42.3926 96.3769 42.9817 96.517 43.7241ZM102.759 41.4173V43.0082H97.7415V41.4173H102.759ZM98.9801 39.3263H101.037V47.5195C101.037 47.796 101.079 48.0082 101.162 48.1559C101.249 48.2998 101.363 48.3983 101.503 48.4513C101.643 48.5044 101.798 48.5309 101.969 48.5309C102.098 48.5309 102.215 48.5214 102.321 48.5025C102.431 48.4835 102.514 48.4665 102.571 48.4513L102.918 50.0593C102.808 50.0972 102.651 50.1388 102.446 50.1843C102.245 50.2298 101.999 50.2563 101.707 50.2638C101.192 50.279 100.728 50.2013 100.315 50.0309C99.9025 49.8567 99.5748 49.5877 99.3324 49.2241C99.0938 48.8604 98.9763 48.4059 98.9801 47.8604V39.3263ZM108.192 50.315C107.339 50.315 106.601 50.1275 105.976 49.7525C105.351 49.3775 104.866 48.8529 104.521 48.1786C104.18 47.5044 104.01 46.7165 104.01 45.815C104.01 44.9135 104.18 44.1237 104.521 43.4457C104.866 42.7676 105.351 42.2411 105.976 41.8661C106.601 41.4911 107.339 41.3036 108.192 41.3036C109.044 41.3036 109.783 41.4911 110.408 41.8661C111.033 42.2411 111.516 42.7676 111.857 43.4457C112.201 44.1237 112.374 44.9135 112.374 45.815C112.374 46.7165 112.201 47.5044 111.857 48.1786C111.516 48.8529 111.033 49.3775 110.408 49.7525C109.783 50.1275 109.044 50.315 108.192 50.315ZM108.203 48.6673C108.665 48.6673 109.052 48.5404 109.362 48.2866C109.673 48.029 109.904 47.6843 110.055 47.2525C110.211 46.8207 110.288 46.3396 110.288 45.8093C110.288 45.2752 110.211 44.7923 110.055 44.3604C109.904 43.9248 109.673 43.5782 109.362 43.3207C109.052 43.0631 108.665 42.9343 108.203 42.9343C107.73 42.9343 107.336 43.0631 107.021 43.3207C106.711 43.5782 106.478 43.9248 106.322 44.3604C106.171 44.7923 106.095 45.2752 106.095 45.8093C106.095 46.3396 106.171 46.8207 106.322 47.2525C106.478 47.6843 106.711 48.029 107.021 48.2866C107.336 48.5404 107.73 48.6673 108.203 48.6673ZM114.119 50.1445V41.4173H116.114V42.8718H116.205C116.364 42.368 116.636 41.9798 117.023 41.707C117.413 41.4305 117.858 41.2923 118.358 41.2923C118.472 41.2923 118.598 41.2979 118.739 41.3093C118.883 41.3169 119.002 41.3301 119.097 41.3491V43.2411C119.009 43.2108 118.871 43.1843 118.682 43.1616C118.496 43.1351 118.316 43.1218 118.142 43.1218C117.767 43.1218 117.43 43.2032 117.131 43.3661C116.835 43.5252 116.602 43.7468 116.432 44.0309C116.261 44.315 116.176 44.6426 116.176 45.0138V50.1445H114.119ZM123.967 50.315C123.092 50.315 122.337 50.1332 121.7 49.7695C121.068 49.4021 120.581 48.8832 120.24 48.2127C119.899 47.5385 119.729 46.7449 119.729 45.832C119.729 44.9343 119.899 44.1464 120.24 43.4684C120.585 42.7866 121.066 42.2563 121.683 41.8775C122.301 41.4949 123.026 41.3036 123.859 41.3036C124.397 41.3036 124.905 41.3907 125.382 41.565C125.863 41.7354 126.287 42.0006 126.655 42.3604C127.026 42.7203 127.318 43.1786 127.53 43.7354C127.742 44.2885 127.848 44.9476 127.848 45.7127V46.3434H120.695V44.957H125.876C125.873 44.5631 125.787 44.2127 125.621 43.9059C125.454 43.5953 125.221 43.351 124.922 43.1729C124.626 42.9949 124.282 42.9059 123.888 42.9059C123.467 42.9059 123.098 43.0082 122.78 43.2127C122.462 43.4135 122.214 43.6786 122.036 44.0082C121.861 44.3339 121.772 44.6919 121.768 45.082V46.2923C121.768 46.7998 121.861 47.2354 122.047 47.5991C122.232 47.9589 122.492 48.2354 122.825 48.4286C123.159 48.618 123.549 48.7127 123.996 48.7127C124.295 48.7127 124.566 48.671 124.808 48.5877C125.051 48.5006 125.261 48.3737 125.439 48.207C125.617 48.0404 125.751 47.8339 125.842 47.5877L127.763 47.8036C127.642 48.3112 127.411 48.7544 127.07 49.1332C126.732 49.5082 126.301 49.7998 125.774 50.0082C125.248 50.2127 124.645 50.315 123.967 50.315Z" fill="white"/>
</svg>
