<svg width="35" height="34" viewBox="0 0 35 34" fill="none" xmlns="http://www.w3.org/2000/svg">
<path d="M0.539062 3.625C0.539062 1.62297 2.16203 0 4.16406 0H30.5586C32.5606 0 34.1836 1.62297 34.1836 3.625V30.0195C34.1836 32.0216 32.5606 33.6445 30.5586 33.6445H4.16406C2.16203 33.6445 0.539062 32.0216 0.539062 30.0195V3.625Z" fill="#FFE2D2" fill-opacity="0.3"/>
<path d="M20.3547 12.0439C20.3557 11.6503 20.279 11.2605 20.1291 10.8966C19.9793 10.5327 19.7591 10.2019 19.4813 9.92319C19.2034 9.64447 18.8734 9.42326 18.51 9.27222C18.1466 9.12119 17.7569 9.04328 17.3634 9.04297C15.7122 9.04297 14.3721 10.3879 14.3721 12.0439V12.0343H9.58594V25.1962H25.1409V12.0343H20.3547V12.0439Z" fill="#FFDEA7"/>
<path d="M14.3717 12.0352V25.197H13.7734V12.0352H14.3717ZM20.9526 12.0352H20.3544V25.197H20.9526V12.0352Z" fill="#F3AD61"/>
<path d="M19.7549 19.2148H14.9688V24.001H19.7549V19.2148Z" fill="#F3C07B"/>
<path d="M11.3801 19.9939V21.4195C11.3801 21.5212 11.2964 21.6056 11.1887 21.6056H10.3691C10.2674 21.6056 10.1836 21.5218 10.1836 21.4201V19.9939C10.1836 19.8922 10.2674 19.8084 10.3691 19.8084H11.1947C11.2964 19.8084 11.3801 19.8922 11.3801 19.9939ZM13.1749 19.9939V21.4195C13.1749 21.5212 13.0912 21.6056 12.9835 21.6056H12.1639C12.0622 21.6056 11.9784 21.5218 11.9784 21.4201V19.9939C11.9784 19.8922 12.0622 19.8084 12.1639 19.8084H12.9895C13.0912 19.8084 13.1749 19.8922 13.1749 19.9939ZM11.3801 16.9977V18.424C11.3801 18.5257 11.2964 18.6095 11.1887 18.6095H10.3691C10.2674 18.6095 10.1836 18.5257 10.1836 18.424V16.9977C10.1836 16.896 10.2674 16.8123 10.3691 16.8123H11.1947C11.2964 16.8123 11.3801 16.896 11.3801 16.9977ZM13.1749 16.9977V18.424C13.1749 18.5257 13.0912 18.6095 12.9835 18.6095H12.1639C12.0622 18.6095 11.9784 18.5257 11.9784 18.424V16.9977C11.9784 16.896 12.0622 16.8123 12.1639 16.8123H12.9895C13.0912 16.8123 13.1749 16.896 13.1749 16.9977ZM11.3801 14.0136V15.4399C11.3801 15.5416 11.2964 15.6253 11.1887 15.6253H10.3691C10.2674 15.6253 10.1836 15.5416 10.1836 15.4399V14.0136C10.1836 13.9119 10.2674 13.8281 10.3691 13.8281H11.1947C11.2964 13.8281 11.3801 13.9119 11.3801 14.0136ZM13.1749 14.0136V15.4399C13.1749 15.5416 13.0912 15.6253 12.9835 15.6253H12.1639C12.0622 15.6253 11.9784 15.5416 11.9784 15.4399V14.0136C11.9784 13.9119 12.0622 13.8281 12.1639 13.8281H12.9895C13.0912 13.8281 13.1749 13.9119 13.1749 14.0136ZM22.7436 19.9939V21.4195C22.7436 21.5212 22.6598 21.6056 22.5581 21.6056H21.7361C21.7117 21.6057 21.6875 21.6009 21.665 21.5916C21.6424 21.5824 21.6219 21.5687 21.6046 21.5515C21.5873 21.5343 21.5736 21.5138 21.5642 21.4912C21.5549 21.4687 21.5501 21.4445 21.5501 21.4201V19.9939C21.5501 19.8922 21.6338 19.8084 21.7355 19.8084H22.5569C22.6586 19.8084 22.7436 19.8922 22.7436 19.9939ZM24.542 19.9939V21.4195C24.542 21.5212 24.4582 21.6056 24.3565 21.6056H23.5351C23.5107 21.6057 23.4865 21.6009 23.464 21.5916C23.4414 21.5824 23.4209 21.5687 23.4036 21.5515C23.3863 21.5343 23.3726 21.5138 23.3632 21.4912C23.3539 21.4687 23.349 21.4445 23.349 21.4201V19.9939C23.349 19.8922 23.4328 19.8084 23.5345 19.8084H24.3559C24.4576 19.8084 24.542 19.8922 24.542 19.9939ZM22.7436 16.9977V18.424C22.7436 18.5257 22.6598 18.6095 22.5581 18.6095H21.7361C21.7117 18.6096 21.6875 18.6048 21.665 18.5955C21.6424 18.5862 21.6219 18.5726 21.6046 18.5554C21.5873 18.5381 21.5736 18.5177 21.5642 18.4951C21.5549 18.4726 21.5501 18.4484 21.5501 18.424V16.9977C21.5501 16.896 21.6338 16.8123 21.7355 16.8123H22.5569C22.6586 16.8123 22.7436 16.896 22.7436 16.9977ZM24.542 16.9977V18.424C24.542 18.5257 24.4582 18.6095 24.3565 18.6095H23.5351C23.5107 18.6096 23.4865 18.6048 23.464 18.5955C23.4414 18.5862 23.4209 18.5726 23.4036 18.5554C23.3863 18.5381 23.3726 18.5177 23.3632 18.4951C23.3539 18.4726 23.349 18.4484 23.349 18.424V16.9977C23.349 16.896 23.4328 16.8123 23.5345 16.8123H24.3559C24.4576 16.8123 24.542 16.896 24.542 16.9977ZM22.7436 14.0136V15.4399C22.7436 15.5416 22.6598 15.6253 22.5581 15.6253H21.7361C21.7117 15.6254 21.6875 15.6207 21.665 15.6114C21.6424 15.6021 21.6219 15.5884 21.6046 15.5712C21.5873 15.554 21.5736 15.5335 21.5642 15.511C21.5549 15.4884 21.5501 15.4643 21.5501 15.4399V14.0136C21.5501 13.9119 21.6338 13.8281 21.7355 13.8281H22.5569C22.6586 13.8281 22.7436 13.9119 22.7436 14.0136ZM24.542 14.0136V15.4399C24.542 15.5416 24.4582 15.6253 24.3565 15.6253H23.5351C23.5107 15.6254 23.4865 15.6207 23.464 15.6114C23.4414 15.6021 23.4209 15.5884 23.4036 15.5712C23.3863 15.554 23.3726 15.5335 23.3632 15.511C23.3539 15.4884 23.349 15.4643 23.349 15.4399V14.0136C23.349 13.9119 23.4328 13.8281 23.5345 13.8281H24.3559C24.4576 13.8281 24.542 13.9119 24.542 14.0136ZM16.7645 16.634V15.2101C16.7645 15.1084 16.6808 15.0247 16.5779 15.0247H15.7547C15.7054 15.0248 15.6582 15.0444 15.6233 15.0791C15.5883 15.1138 15.5685 15.1609 15.568 15.2101V16.634C15.568 16.7357 15.6518 16.8195 15.7547 16.8195H16.5779C16.6802 16.8195 16.7645 16.7357 16.7645 16.634ZM19.1576 15.2101V16.634C19.1576 16.7357 19.0738 16.8195 18.9709 16.8195H18.1477C18.1233 16.8196 18.099 16.8149 18.0764 16.8057C18.0537 16.7964 18.0332 16.7828 18.0158 16.7656C17.9985 16.7483 17.9847 16.7278 17.9753 16.7052C17.9659 16.6827 17.9611 16.6585 17.9611 16.634V15.2101C17.9611 15.1084 18.0448 15.0247 18.1477 15.0247H18.9709C19.0732 15.0247 19.1576 15.1084 19.1576 15.2101ZM16.8465 23.4004H15.7852C15.7563 23.4002 15.7278 23.3944 15.7013 23.3831C15.6747 23.3719 15.6507 23.3555 15.6305 23.335C15.6103 23.3144 15.5944 23.29 15.5836 23.2632C15.5729 23.2365 15.5676 23.2079 15.568 23.179V19.4339C15.568 19.3142 15.6619 19.2125 15.7852 19.2125H16.8465C16.9637 19.2125 17.0637 19.3082 17.0637 19.4339V23.179C17.0637 23.3047 16.9637 23.4004 16.8465 23.4004ZM17.8791 23.4004H18.9404C19.0577 23.4004 19.1576 23.3047 19.1576 23.179V19.4339C19.1576 19.3082 19.0577 19.2125 18.9404 19.2125H17.8791C17.8503 19.2127 17.8218 19.2185 17.7952 19.2298C17.7687 19.241 17.7446 19.2574 17.7244 19.278C17.7042 19.2985 17.6883 19.3229 17.6776 19.3497C17.6668 19.3764 17.6615 19.4051 17.6619 19.4339V23.179C17.6619 23.3047 17.7618 23.4004 17.8791 23.4004Z" fill="#83CBFF"/>
<path d="M20.4422 10.2521H24.4446C24.9956 10.2521 25.4605 10.6475 25.6471 11.2027C25.7309 11.4528 25.7638 11.6993 25.5544 11.8991C25.455 11.9934 25.3234 12.0462 25.1865 12.0469H20.3285L20.325 12.0361C20.3198 12.0249 20.317 12.0126 20.3166 11.999C20.3166 11.8136 20.2986 11.6281 20.2627 11.4486C20.179 11.0059 19.9875 10.6051 19.7303 10.2521C19.457 9.87837 19.0996 9.57424 18.687 9.36429C18.2744 9.15434 17.8181 9.04448 17.3552 9.04358C16.38 9.04358 15.5185 9.52219 14.98 10.2521C14.7228 10.6051 14.5313 11.0059 14.4476 11.4486C14.4117 11.6281 14.3937 11.8136 14.3937 11.999C14.3934 12.0073 14.3914 12.0155 14.3878 12.0229C14.3842 12.0301 14.3822 12.0381 14.3818 12.0469H9.52385C9.44612 12.047 9.36931 12.03 9.29882 11.9973C9.22834 11.9645 9.16588 11.9167 9.11583 11.8572C8.96028 11.6742 8.98003 11.4731 9.04225 11.2566C9.20856 10.6733 9.68478 10.2521 10.2537 10.2521H14.2561C14.566 9.70442 15.0155 9.24868 15.5588 8.93129C16.1022 8.61391 16.7199 8.44622 17.3492 8.44531C17.9784 8.44622 18.5962 8.61391 19.1395 8.93129C19.6829 9.24868 20.1324 9.70442 20.4422 10.2521ZM18.2651 10.8384H18.2532C18.1756 10.8387 18.1014 10.8697 18.0466 10.9247C17.9919 10.9796 17.9612 11.054 17.9612 11.1315V12.0349H16.7617V11.1315C16.7617 11.0538 16.7308 10.9792 16.6758 10.9242C16.6208 10.8693 16.5463 10.8384 16.4685 10.8384H16.4566C16.379 10.8387 16.3048 10.8697 16.25 10.9247C16.1953 10.9796 16.1646 11.054 16.1646 11.1315V13.5366C16.1646 13.6981 16.2962 13.8297 16.4572 13.8297H16.4691C16.5468 13.8296 16.6212 13.7986 16.676 13.7436C16.7309 13.6887 16.7617 13.6142 16.7617 13.5366V12.6392H17.9612V13.5366C17.9612 13.6981 18.0922 13.8297 18.2532 13.8297H18.2651C18.3428 13.8296 18.4172 13.7986 18.472 13.7436C18.5269 13.6887 18.5577 13.6142 18.5577 13.5366V11.1315C18.5577 11.0539 18.5269 10.9794 18.472 10.9245C18.4172 10.8695 18.3428 10.8385 18.2651 10.8384ZM20.9448 25.1968H13.7715V24.9694C13.7715 24.766 13.9391 24.5985 14.1431 24.5985H14.3698V24.3389C14.3698 24.1516 14.5194 24.0002 14.7048 24.0002H20.0174C20.2029 24.0002 20.3525 24.1516 20.3525 24.3389V24.5985H20.5792C20.7826 24.5985 20.9507 24.766 20.9507 24.9694V25.1968H20.9448ZM20.0294 19.4295C20.027 19.4263 20.026 19.4223 20.0264 19.4175C20.0268 19.4127 20.0258 19.4087 20.0234 19.4056C19.7502 18.9443 19.3616 18.5622 18.8958 18.2968C18.43 18.0314 17.9032 17.8919 17.3671 17.8919C16.8311 17.8919 16.3042 18.0314 15.8384 18.2968C15.3727 18.5622 14.9841 18.9443 14.7108 19.4056V19.4109C14.7104 19.4121 14.7084 19.4143 14.7048 19.4175C14.6869 19.4534 14.6689 19.4953 14.6689 19.5432C14.6689 19.6927 14.7898 19.8124 14.9406 19.8124H19.7817C19.8173 19.8127 19.8525 19.806 19.8855 19.7926C19.9184 19.7792 19.9484 19.7594 19.9736 19.7344C19.9989 19.7093 20.0189 19.6796 20.0326 19.6467C20.0463 19.6139 20.0533 19.5787 20.0533 19.5432C20.0548 19.5039 20.0466 19.4648 20.0294 19.4295Z" fill="#F8312F"/>
</svg>
