<svg width="45" height="34" viewBox="0 0 45 34" fill="none" xmlns="http://www.w3.org/2000/svg">
<path d="M1.33594 8.11111C1.33594 4.18375 4.51969 1 8.44705 1H36.8915C40.8188 1 44.0026 4.18375 44.0026 8.11111V25.8889C44.0026 29.8162 40.8189 33 36.8915 33H8.44705C4.5197 33 1.33594 29.8162 1.33594 25.8889V8.11111Z" stroke="#DEDFE1" stroke-width="1.77778"/>
<g clip-path="url(#clip0_1621_38173)">
<path d="M22.9679 14.8529C22.946 16.5795 24.5066 17.543 25.6823 18.1159C26.8901 18.7037 27.2958 19.0806 27.291 19.6062C27.282 20.4106 26.3276 20.7657 25.4344 20.7795C23.8762 20.8036 22.9701 20.3588 22.2498 20.0223L21.6885 22.649C22.4112 22.982 23.7493 23.2724 25.137 23.2852C28.3943 23.2852 30.5252 21.6773 30.5368 19.1843C30.5495 16.0204 26.1605 15.8453 26.1905 14.4312C26.2009 14.0023 26.61 13.5448 27.5066 13.4284C27.9505 13.3696 29.1756 13.3247 30.5645 13.9643L31.1097 11.4229C30.3627 11.1509 29.4027 10.8905 28.2074 10.8905C25.1416 10.8905 22.9853 12.5203 22.9679 14.8529ZM36.348 11.1094C35.7533 11.1094 35.252 11.4563 35.0283 11.9887L30.3755 23.0985H33.6304L34.2781 21.3084H38.2555L38.6312 23.0985H41.5L38.9966 11.1094H36.348ZM36.8034 14.3481L37.7427 18.8501H35.1702L36.8034 14.3481ZM19.0215 11.1095L16.4558 23.0983H19.5575L22.122 11.1092L19.0215 11.1095ZM14.4331 11.1095L11.2047 19.2696L9.89881 12.3312C9.74558 11.5566 9.14045 11.1094 8.46845 11.1094H3.1911L3.11719 11.4575C4.2006 11.6926 5.43155 12.0718 6.17732 12.4775C6.63372 12.7254 6.76386 12.942 6.91379 13.531L9.38724 23.0985H12.6649L17.6901 11.1094L14.4331 11.1095Z" fill="url(#paint0_linear_1621_38173)"/>
</g>
<defs>
<linearGradient id="paint0_linear_1621_38173" x1="1767.73" y1="48.1489" x2="1803.61" y2="-1224.8" gradientUnits="userSpaceOnUse">
<stop stop-color="#222357"/>
<stop offset="1" stop-color="#254AA5"/>
</linearGradient>
<clipPath id="clip0_1621_38173">
<rect width="38.3829" height="12.4444" fill="white" transform="translate(3.11719 10.8906)"/>
</clipPath>
</defs>
</svg>
